<?xml version="1.0" encoding="utf-8"?>
<!-- Generator: Adobe Illustrator 15.0.2, SVG Export Plug-In . SVG Version: 6.00 Build 0)  -->
<!DOCTYPE svg PUBLIC "-//W3C//DTD SVG 1.1//EN" "http://www.w3.org/Graphics/SVG/1.1/DTD/svg11.dtd">
<svg version="1.1" id="Layer_1" xmlns="http://www.w3.org/2000/svg" xmlns:xlink="http://www.w3.org/1999/xlink" x="0px" y="0px"
	 width="1190.551px" height="841.891px" viewBox="0 0 1190.551 841.891" enable-background="new 0 0 1190.551 841.891"
	 xml:space="preserve">
<circle fill="#B7B7B7" cx="115.867" cy="276.812" r="47.614"/>
<circle fill="#B7B7B7" cx="823.052" cy="325.523" r="47.613"/>
<path fill="#3299BA" d="M1004.962,200.136c-38.404,0-69.662,31.156-69.841,69.519v115.512h-0.067
	c-0.178,28.175-23.146,51.044-51.361,51.044c-28.217,0-51.185-22.869-51.363-51.044h-18.478
	c0.179,38.362,31.437,69.521,69.841,69.521s69.66-31.157,69.838-69.521V269.655h0.068c0.178-28.174,23.146-51.042,51.363-51.042
	c28.215,0,51.184,22.868,51.362,51.042h18.479C1074.621,231.292,1043.365,200.136,1004.962,200.136z"/>
<path fill="#3299BA" d="M762.43,199.898c-38.405,0-69.662,31.157-69.84,69.519V384.93h-0.068
	c-0.178,28.175-23.146,51.043-51.363,51.043c-28.215,0-51.183-22.868-51.361-51.043v-39.25h0.021
	c-0.179-38.363-31.436-69.52-69.84-69.52c-25.651,0-48.098,13.91-60.241,34.572c-12.143-20.663-34.589-34.572-60.238-34.572
	c-37.976,0-68.962,30.462-69.823,68.234c0,0.034,0.003,0.509,0.011,1.285l0,0c-5.408,51.602-49.082,91.963-102.092,91.963
	c-56.652,0-102.742-46.09-102.742-102.742h-18.478c0,66.841,54.379,121.218,121.22,121.218c63.535,0,115.548-49.144,120.561-111.412
	l0,0c0-0.09-0.001-0.155,0-0.166c0.78-27.648,23.508-49.903,51.343-49.903c26.151,0,47.78,19.647,50.95,44.954
	c0,0.009,0,0.018-0.001,0.026h18.579c0-0.003,0-0.007,0-0.01c3.163-25.314,24.796-44.971,50.953-44.971
	c28.216,0,51.184,22.867,51.363,51.042v39.25h-0.021c0.18,38.362,31.436,69.519,69.839,69.519c38.405,0,69.662-31.155,69.841-69.519
	V283.833h30.737V265.24h-30.459c2.291-26.221,24.347-46.865,51.152-46.865c28.215,0,51.184,22.868,51.36,51.042h18.479
	C832.091,231.055,800.833,199.898,762.43,199.898z"/>
</svg>
